<svg id="Layer_1" height="512" viewBox="0 0 128 128" width="512" xmlns="http://www.w3.org/2000/svg" data-name="Layer 1"><path d="m91.012 52.19a1.478 1.478 0 0 0 -.511-.616 34.669 34.669 0 0 0 -53.1.109 1.737 1.737 0 0 0 -.271.3c-.014.02-.022.042-.034.062a34.649 34.649 0 0 0 0 43.875c.013.02.021.043.034.063a1.74 1.74 0 0 0 .272.3 34.669 34.669 0 0 0 53.1.1 1.457 1.457 0 0 0 .5-.608 34.636 34.636 0 0 0 0-43.6zm-1.988 40.463a37.865 37.865 0 0 0 -7.323-3.4 57.983 57.983 0 0 0 1.906-13.514h11.572a31.06 31.06 0 0 1 -6.155 16.914zm-56.2-16.916h11.569a57.983 57.983 0 0 0 1.907 13.514 37.865 37.865 0 0 0 -7.323 3.4 31.06 31.06 0 0 1 -6.156-16.914zm6.154-20.415a37.864 37.864 0 0 0 7.323 3.4 57.977 57.977 0 0 0 -1.906 13.514h-11.574a31.06 31.06 0 0 1 6.155-16.914zm26.774 6.2a55.8 55.8 0 0 0 12.539-1.768 53.944 53.944 0 0 1 1.809 12.483h-14.35zm0-3.5v-15.068c4.7 1.035 8.87 6.175 11.492 13.468a52.345 52.345 0 0 1 -11.494 1.605zm-3.5-15.073v15.078a52.345 52.345 0 0 1 -11.492-1.606c2.62-7.292 6.786-12.432 11.49-13.467zm0 18.573v10.71h-14.352a53.944 53.944 0 0 1 1.813-12.479 55.8 55.8 0 0 0 12.537 1.773zm-14.352 14.215h14.35v10.71a55.8 55.8 0 0 0 -12.539 1.768 53.946 53.946 0 0 1 -1.811-12.478zm14.35 14.21v15.073c-4.7-1.035-8.87-6.175-11.492-13.468a52.339 52.339 0 0 1 11.492-1.605zm3.5 15.074v-15.074a52.339 52.339 0 0 1 11.492 1.606c-2.622 7.292-6.788 12.432-11.492 13.467zm0-18.573v-10.711h14.35a53.946 53.946 0 0 1 -1.813 12.479 55.8 55.8 0 0 0 -12.537-1.769zm17.857-14.21a57.977 57.977 0 0 0 -1.907-13.515 37.851 37.851 0 0 0 7.323-3.4 31.059 31.059 0 0 1 6.155 16.916zm3.128-19.629a34.63 34.63 0 0 1 -6.072 2.779 32.177 32.177 0 0 0 -6.055-10.773 31.313 31.313 0 0 1 12.127 7.993zm-33.342-7.995a32.177 32.177 0 0 0 -6.055 10.773 34.642 34.642 0 0 1 -6.073-2.779 31.313 31.313 0 0 1 12.128-7.994zm-12.128 50.752a34.642 34.642 0 0 1 6.073-2.779 32.177 32.177 0 0 0 6.055 10.773 31.315 31.315 0 0 1 -12.128-7.994zm33.341 7.994a32.178 32.178 0 0 0 6.055-10.774 34.637 34.637 0 0 1 6.073 2.779 31.315 31.315 0 0 1 -12.127 7.995z"/><path d="m122.25 8.949h-116.5a5.757 5.757 0 0 0 -5.75 5.751v98.6a5.757 5.757 0 0 0 5.75 5.75h116.5a5.757 5.757 0 0 0 5.75-5.75v-98.6a5.757 5.757 0 0 0 -5.75-5.751zm-118.75 5.751a2.252 2.252 0 0 1 2.25-2.25h116.5a2.252 2.252 0 0 1 2.25 2.25v14.217h-121zm118.75 100.851h-116.5a2.252 2.252 0 0 1 -2.25-2.251v-80.883h121v80.883a2.252 2.252 0 0 1 -2.25 2.251z"/><path d="m17.167 18.933h-6a1.75 1.75 0 1 0 0 3.5h6a1.75 1.75 0 0 0 0-3.5z"/><path d="m34.02 18.933h-6a1.75 1.75 0 0 0 0 3.5h6a1.75 1.75 0 0 0 0-3.5z"/><path d="m50.872 18.933h-6a1.75 1.75 0 0 0 0 3.5h6a1.75 1.75 0 0 0 0-3.5z"/></svg>