<svg id="Livello_1" data-name="Livello 1" xmlns="http://www.w3.org/2000/svg" xmlns:xlink="http://www.w3.org/1999/xlink" viewBox="0 0 329.4 599.03"><defs><style>.cls-1{fill:none;}.cls-2{clip-path:url(#clip-path);}.cls-10,.cls-12,.cls-22,.cls-23,.cls-3{fill:#683c14;}.cls-10,.cls-12,.cls-13,.cls-14,.cls-15,.cls-16,.cls-17,.cls-18,.cls-20,.cls-21,.cls-22,.cls-23,.cls-24,.cls-25,.cls-28,.cls-29,.cls-3,.cls-5,.cls-6,.cls-8{stroke:#1e1e1c;}.cls-10,.cls-12,.cls-13,.cls-14,.cls-15,.cls-16,.cls-17,.cls-18,.cls-20,.cls-21,.cls-22,.cls-23,.cls-24,.cls-25,.cls-26,.cls-27,.cls-28,.cls-29,.cls-3,.cls-5,.cls-6,.cls-8{stroke-miterlimit:10;}.cls-3,.cls-6{stroke-width:1.33px;}.cls-4{clip-path:url(#clip-path-2);}.cls-5{fill:#f59e3a;stroke-width:1.37px;}.cls-21,.cls-24,.cls-6{fill:#e8501d;}.cls-7{clip-path:url(#clip-path-3);}.cls-15,.cls-8{fill:#e79557;}.cls-8{stroke-width:1.42px;}.cls-9{clip-path:url(#clip-path-4);}.cls-10{stroke-width:1.24px;}.cls-11{clip-path:url(#clip-path-5);}.cls-12{stroke-width:1.23px;}.cls-13,.cls-20{fill:#be1823;}.cls-13,.cls-14,.cls-15,.cls-16,.cls-17{stroke-width:1.51px;}.cls-14,.cls-18{fill:#f29104;}.cls-16{fill:#eb633e;}.cls-17{fill:#e5352b;}.cls-18{stroke-width:1.36px;}.cls-19{clip-path:url(#clip-path-6);}.cls-20,.cls-21{stroke-width:0.98px;}.cls-22{stroke-width:0.99px;}.cls-23{stroke-width:1.17px;}.cls-24{stroke-width:1.62px;}.cls-25,.cls-28,.cls-29,.cls-30{fill:#1e1e1c;}.cls-25{stroke-width:2.66px;}.cls-26,.cls-27{fill:#fff;stroke:#fff;}.cls-26{stroke-width:0.68px;}.cls-27{stroke-width:0.11px;}.cls-28{stroke-width:1.35px;}.cls-29{stroke-width:1.49px;}</style><clipPath id="clip-path" transform="translate(-132.94 -117.43)"><rect class="cls-1" x="204.82" y="564.62" width="73.42" height="159.89" transform="translate(-403.42 885.05) rotate(-89.91)"/></clipPath><clipPath id="clip-path-2" transform="translate(-132.94 -117.43)"><rect class="cls-1" x="272.68" y="609.62" width="159.89" height="73.42" transform="translate(706.3 1292.09) rotate(179.91)"/></clipPath><clipPath id="clip-path-3" transform="translate(-132.94 -117.43)"><rect class="cls-1" x="166.19" y="221.83" width="260.6" height="403.19" rx="12"/></clipPath><clipPath id="clip-path-4" transform="translate(-132.94 -117.43)"><rect class="cls-1" x="180.95" y="540.99" width="113.71" height="88.42"/></clipPath><clipPath id="clip-path-5" transform="translate(-132.94 -117.43)"><rect class="cls-1" x="300.16" y="540.67" width="110.94" height="88.71"/></clipPath><clipPath id="clip-path-6" transform="translate(-132.94 -117.43)"><ellipse class="cls-1" cx="295.75" cy="265.76" rx="129.56" ry="139.51"/></clipPath></defs><title>Gufo</title><g class="cls-2"><polygon class="cls-3" points="136.97 465.83 172.35 461.63 139.51 493.03 146.68 524.44 114.73 520.23 86.52 555.84 87.41 520.23 52.03 524.43 84.87 493.02 77.71 461.61 109.65 465.82 137.86 430.21 136.97 465.83"/></g><g class="cls-4"><polygon class="cls-3" points="191.31 467.6 155.93 463.39 188.76 494.8 181.6 526.21 213.54 522 241.76 557.61 240.86 521.99 276.24 526.19 243.41 494.79 250.57 463.38 218.63 467.59 190.41 431.98 191.31 467.6"/></g><rect class="cls-5" x="33.26" y="129.82" width="260.6" height="380.06" rx="12"/><polygon class="cls-6" points="50.69 160.02 89.16 164.5 44.91 380.92 0.66 597.34 6.44 376.43 12.23 155.53 50.69 160.02"/><polygon class="cls-6" points="278.58 160.51 240.11 164.99 284.42 381.95 328.74 598.9 322.89 377.46 317.05 156.02 278.58 160.51"/><g class="cls-7"><ellipse class="cls-8" cx="163.56" cy="456.59" rx="130.3" ry="131.04"/></g><g class="cls-9"><ellipse class="cls-10" cx="104.87" cy="511.99" rx="38.73" ry="65.88"/></g><g class="cls-11"><ellipse class="cls-12" cx="222.7" cy="511.95" rx="37.79" ry="66.09"/></g><polygon class="cls-13" points="163.91 334.86 191.34 334.86 177.63 411.31 163.91 487.76 150.2 411.31 136.48 334.86 163.91 334.86"/><polygon class="cls-14" points="136.25 316.62 163.91 316.62 150.08 363.94 136.25 411.26 122.42 363.94 108.59 316.62 136.25 316.62"/><polygon class="cls-14" points="191.31 316.62 218.97 316.62 205.14 363.94 191.31 411.26 177.48 363.94 163.65 316.62 191.31 316.62"/><polygon class="cls-15" points="136.12 273.96 163.78 273.96 149.95 321.28 136.12 368.6 122.29 321.28 108.46 273.96 136.12 273.96"/><polygon class="cls-15" points="191.18 273.96 218.84 273.96 205.01 321.28 191.18 368.6 177.35 321.28 163.52 273.96 191.18 273.96"/><polygon class="cls-16" points="109.05 257.77 136.48 257.77 122.77 304.69 109.05 351.61 95.34 304.69 81.63 257.77 109.05 257.77"/><polygon class="cls-16" points="163.65 257.77 191.08 257.77 177.36 304.69 163.65 351.61 149.93 304.69 136.22 257.77 163.65 257.77"/><polygon class="cls-16" points="218.24 257.77 245.67 257.77 231.96 304.69 218.24 351.61 204.53 304.69 190.81 257.77 218.24 257.77"/><polygon class="cls-17" points="131.04 257.77 147.42 257.77 139.23 285.79 131.04 313.81 122.85 285.79 114.66 257.77 131.04 257.77"/><polygon class="cls-17" points="163.65 257.77 180.03 257.77 171.84 285.79 163.65 313.81 155.46 285.79 147.27 257.77 163.65 257.77"/><polygon class="cls-17" points="196.25 257.77 212.63 257.77 204.44 285.79 196.25 313.81 188.06 285.79 179.87 257.77 196.25 257.77"/><ellipse class="cls-18" cx="164.14" cy="147.65" rx="131.53" ry="139.51"/><g class="cls-19"><polygon class="cls-20" points="164.25 8.45 190.77 8.45 177.51 41.82 164.25 75.19 150.99 41.82 137.72 8.45 164.25 8.45"/><polygon class="cls-21" points="137.5 0.49 164.25 0.49 150.87 21.14 137.5 41.8 124.12 21.14 110.75 0.49 137.5 0.49"/><polygon class="cls-21" points="190.74 0.49 217.49 0.49 204.11 21.14 190.74 41.8 177.36 21.14 163.99 0.49 190.74 0.49"/></g><polygon class="cls-22" points="79.63 46.49 136.29 62.26 103.71 69.64 71.13 77.01 47.05 53.87 22.97 30.71 79.63 46.49"/><polygon class="cls-22" points="249.13 46.49 192.47 62.26 225.04 69.64 257.62 77.01 281.7 53.87 305.78 30.71 249.13 46.49"/><polygon class="cls-23" points="102.61 42.86 144.63 72.12 120.47 85.8 96.31 99.49 78.45 56.54 60.6 13.6 102.61 42.86"/><polygon class="cls-23" points="228.31 42.86 186.29 72.12 210.45 85.8 234.61 99.49 252.47 56.54 270.32 13.6 228.31 42.86"/><circle class="cls-24" cx="112.27" cy="104.41" r="50.54"/><circle class="cls-24" cx="216" cy="104.41" r="50.54"/><circle class="cls-25" cx="113.62" cy="104.41" r="41.38"/><circle class="cls-25" cx="214.21" cy="104.41" r="41.38"/><circle class="cls-26" cx="216" cy="101.2" r="10.56"/><circle class="cls-27" cx="230.07" cy="108.65" r="1.76"/><circle class="cls-26" cx="112.27" cy="104.41" r="10.56"/><circle class="cls-27" cx="126.34" cy="111.86" r="1.76"/><polygon class="cls-28" points="166.19 129.81 196.25 129.81 181.22 184.94 166.19 240.06 151.15 184.94 136.12 129.81 166.19 129.81"/><ellipse class="cls-29" cx="166.19" cy="127.15" rx="30.07" ry="18.7"/><path class="cls-30" d="M367.77,278.6a53.23,53.23,0,0,0,14.12-3.44,38.05,38.05,0,0,0,12.17-7.61,30,30,0,0,0,7.64-11.84,28.08,28.08,0,0,0,1.44-7c.09-1.19,0-2.39,0-3.6s-.29-2.39-.39-3.62l.16,0a23.4,23.4,0,0,1,.33,14.71A27.16,27.16,0,0,1,395,268.53a39.5,39.5,0,0,1-12.78,7.4,53.31,53.31,0,0,1-14.39,2.83Z" transform="translate(-132.94 -117.43)"/><path class="cls-30" d="M228.29,278.8a53.45,53.45,0,0,1-14.4-2.83,39.35,39.35,0,0,1-12.77-7.4,27.16,27.16,0,0,1-8.31-12.32,23.36,23.36,0,0,1,.32-14.72l.16.05c-.1,1.22-.28,2.42-.38,3.62s-.06,2.41,0,3.6a27.65,27.65,0,0,0,1.44,6.94A30,30,0,0,0,202,267.59a38,38,0,0,0,12.17,7.6,52.86,52.86,0,0,0,14.12,3.45Z" transform="translate(-132.94 -117.43)"/></svg>