<svg xmlns="http://www.w3.org/2000/svg" xmlns:xlink="http://www.w3.org/1999/xlink" viewBox="0 0 916 607.36"><defs><style>.cls-1{fill:none;}.cls-2{fill:#3d5984;}.cls-3{fill:#f7c2bd;}.cls-4{fill:#619fac;}.cls-5{fill:#f29100;}.cls-6{stroke-miterlimit:10;fill:url(#Nuovo_pattern_5);stroke:url(#Nuovo_pattern_5);}</style><pattern id="Nuovo_pattern_5" data-name="Nuovo pattern 5" width="243.06" height="308" patternUnits="userSpaceOnUse" viewBox="0 0 243.06 308"><rect class="cls-1" width="243.06" height="308"/><rect class="cls-2" width="243" height="308"/><rect class="cls-3" x="89.22" y="154" width="76.92" height="76.92"/><polygon class="cls-4" points="44.74 230.92 0.33 230.92 22.53 192.46 44.74 154 66.94 192.46 89.15 230.92 44.74 230.92"/><circle class="cls-5" cx="204.6" cy="192.54" r="38.46"/><polygon class="cls-3" points="166.14 231 243.06 231 243.06 307.92 166.14 307.92 166.14 231"/><polygon class="cls-4" points="127.68 231.08 172.09 231.08 149.88 269.54 127.68 308 105.47 269.54 83.27 231.08 127.68 231.08"/><circle class="cls-5" cx="44.74" cy="269.38" r="38.46"/><polygon class="cls-4" points="44.74 76.92 0.33 76.92 22.53 38.46 44.74 0 66.94 38.46 89.15 76.92 44.74 76.92"/><circle class="cls-5" cx="125.8" cy="38.54" r="38.46"/><polygon class="cls-3" points="166.14 77 243.06 77 243.06 153.92 166.14 153.92 166.14 77"/><polygon class="cls-4" points="127.68 77.08 172.09 77.08 149.88 115.54 127.68 154 105.47 115.54 83.27 77.08 127.68 77.08"/><circle class="cls-5" cx="44.74" cy="115.38" r="38.46"/><polygon class="cls-4" points="198.58 77.17 154.17 77.17 176.38 38.71 198.58 0.25 220.78 38.71 242.99 77.17 198.58 77.17"/></pattern></defs><title>Risorsa 3</title><g id="Livello_2" data-name="Livello 2"><g id="Livello_1-2" data-name="Livello 1"><rect class="cls-6" x="0.5" y="0.5" width="915" height="606.36" rx="12"/></g></g></svg>