<svg id="Livello_1" data-name="Livello 1" xmlns="http://www.w3.org/2000/svg" xmlns:xlink="http://www.w3.org/1999/xlink" viewBox="0 0 396.97 621.86"><defs><style>.cls-1{fill:none;}.cls-10,.cls-16,.cls-2{fill:#94c11f;}.cls-10,.cls-11,.cls-13,.cls-15,.cls-16,.cls-17,.cls-18,.cls-2,.cls-21,.cls-22,.cls-23,.cls-4,.cls-7,.cls-8{stroke:#1e1e1c;}.cls-10,.cls-11,.cls-13,.cls-15,.cls-16,.cls-17,.cls-18,.cls-19,.cls-2,.cls-20,.cls-21,.cls-22,.cls-23,.cls-4,.cls-7,.cls-8{stroke-miterlimit:10;}.cls-2{stroke-width:1.38px;}.cls-3{clip-path:url(#clip-path);}.cls-22,.cls-23,.cls-4,.cls-7{fill:#009640;}.cls-15,.cls-4{stroke-width:1.33px;}.cls-5{clip-path:url(#clip-path-2);}.cls-6{clip-path:url(#clip-path-3);}.cls-7{stroke-width:1.24px;}.cls-11,.cls-8{fill:#3aaa35;}.cls-8{stroke-width:1.36px;}.cls-9{clip-path:url(#clip-path-4);}.cls-10{stroke-width:1.53px;}.cls-11{stroke-width:1.31px;}.cls-12{clip-path:url(#clip-path-5);}.cls-13,.cls-15{fill:#fbea1c;}.cls-13{stroke-width:0.99px;}.cls-14{clip-path:url(#clip-path-6);}.cls-16{stroke-width:1.18px;}.cls-17{fill:#008e39;stroke-width:1.62px;}.cls-18,.cls-21,.cls-24{fill:#1e1e1c;}.cls-18{stroke-width:2.66px;}.cls-19,.cls-20{fill:#fff;stroke:#fff;}.cls-19{stroke-width:0.68px;}.cls-20{stroke-width:0.11px;}.cls-21{stroke-width:1.32px;}.cls-22{stroke-width:1.49px;}.cls-23{stroke-width:1.48px;}</style><clipPath id="clip-path" transform="translate(-99.23 -124.88)"><rect class="cls-1" x="49.55" y="340.13" width="160.95" height="73.91" transform="translate(507.69 248.75) rotate(90.26)"/></clipPath><clipPath id="clip-path-2" transform="translate(-99.23 -124.88)"><rect class="cls-1" x="384.78" y="340.13" width="160.95" height="73.91" transform="translate(840.24 -89.86) rotate(89.74)"/></clipPath><clipPath id="clip-path-3" transform="translate(-99.23 -124.88)"><rect class="cls-1" x="165.11" y="239.42" width="261.79" height="401.66" rx="12"/></clipPath><clipPath id="clip-path-4" transform="translate(-99.23 -124.88)"><rect class="cls-1" x="211.82" y="596.99" width="73.91" height="160.95" transform="translate(-429.09 925.14) rotate(-89.91)"/></clipPath><clipPath id="clip-path-5" transform="translate(-99.23 -124.88)"><rect class="cls-1" x="280.13" y="642.29" width="160.95" height="73.91" transform="translate(722.31 1357.9) rotate(179.91)"/></clipPath><clipPath id="clip-path-6" transform="translate(-99.23 -124.88)"><rect class="cls-1" x="166.64" y="364.99" width="269.29" height="314.25"/></clipPath></defs><title>Rana</title><circle class="cls-2" cx="139.36" cy="59.81" r="59.12"/><circle class="cls-2" cx="260.69" cy="59.81" r="59.12"/><g class="cls-3"><polygon class="cls-4" points="92.43 280.95 96.55 316.57 65.04 283.43 33.4 290.55 37.73 258.41 1.96 229.9 37.81 230.91 33.69 195.28 65.2 228.43 96.84 221.31 92.51 253.45 128.28 281.95 92.43 280.95"/></g><g class="cls-5"><polygon class="cls-4" points="304.39 280.95 300.27 316.57 331.78 283.43 363.42 290.55 359.09 258.41 394.86 229.9 359 230.91 363.13 195.28 331.62 228.43 299.98 221.31 304.31 253.45 268.54 281.95 304.39 280.95"/></g><g class="cls-6"><ellipse class="cls-7" cx="196.78" cy="463.74" rx="103.45" ry="157.5"/></g><rect class="cls-8" x="68.27" y="145.48" width="261.79" height="371.8" rx="12"/><g class="cls-9"><polygon class="cls-4" points="178.11 490.87 213.73 486.64 180.67 518.25 187.88 549.87 155.73 545.63 127.33 581.48 128.23 545.63 92.62 549.86 125.67 518.24 118.46 486.62 150.61 490.87 179.01 455.02 178.11 490.87"/></g><ellipse class="cls-10" cx="205.26" cy="562.07" rx="80.18" ry="106.72" transform="matrix(0.78, -0.62, 0.62, 0.78, -404.94, 125.8)"/><ellipse class="cls-11" cx="219.3" cy="575.82" rx="68.85" ry="91.63" transform="translate(-410.45 137.56) rotate(-38.58)"/><g class="cls-12"><polygon class="cls-4" points="232.81 492.65 197.2 488.42 230.25 520.03 223.04 551.65 255.19 547.41 283.6 583.26 282.7 547.4 318.31 551.63 285.26 520.02 292.47 488.4 260.32 492.64 231.91 456.8 232.81 492.65"/></g><ellipse class="cls-10" cx="404.01" cy="562.07" rx="106.72" ry="80.18" transform="translate(-386.55 402.51) rotate(-51.42)"/><ellipse class="cls-11" cx="389.97" cy="575.82" rx="91.63" ry="68.85" transform="translate(-402.59 396.71) rotate(-51.42)"/><circle class="cls-13" cx="77.08" cy="404.96" r="10.63"/><circle class="cls-13" cx="93.31" cy="395.23" r="4.14"/><circle class="cls-13" cx="338.3" cy="404.96" r="10.63"/><circle class="cls-13" cx="344.78" cy="423.73" r="4.14"/><g class="cls-14"><ellipse class="cls-15" cx="202.06" cy="240.11" rx="72.76" ry="136.41"/></g><ellipse class="cls-16" cx="200.02" cy="155.33" rx="132.4" ry="105.63"/><circle class="cls-17" cx="147.81" cy="73.66" r="50.88"/><circle class="cls-17" cx="252.23" cy="73.66" r="50.88"/><circle class="cls-18" cx="149.17" cy="73.66" r="41.66"/><circle class="cls-18" cx="250.43" cy="73.66" r="41.66"/><circle class="cls-19" cx="252.23" cy="70.43" r="10.63"/><circle class="cls-20" cx="266.4" cy="77.94" r="1.77"/><circle class="cls-19" cx="147.81" cy="73.66" r="10.63"/><circle class="cls-20" cx="161.98" cy="81.17" r="1.77"/><ellipse class="cls-21" cx="283.2" cy="286.14" rx="7.79" ry="14.11" transform="translate(-214.33 219.89) rotate(-53.67)"/><ellipse class="cls-21" cx="315.95" cy="286.14" rx="14.11" ry="7.79" transform="translate(-207.33 117.93) rotate(-36.33)"/><ellipse class="cls-22" cx="116.26" cy="160.95" rx="40.07" ry="25.49"/><ellipse class="cls-23" cx="281.67" cy="160.73" rx="40.07" ry="25.27"/><path class="cls-24" d="M213.54,311.91c17.28,16.93,41.27,25.47,64.88,28.66,25.45,3.44,52.4,1.13,76.4-8.34,12.14-4.79,23.49-11.55,32.8-20.76a.83.83,0,0,0-1.17-1.18c-17,16.8-40.62,25.29-63.89,28.56-24.61,3.45-50.58,1.39-73.94-7.29-12.55-4.66-24.32-11.43-33.91-20.83-.76-.74-1.94.43-1.17,1.18Z" transform="translate(-99.23 -124.88)"/><path class="cls-24" d="M227.72,143.75a53.13,53.13,0,0,0-14.21,3.46,38.39,38.39,0,0,0-12.26,7.65,30.13,30.13,0,0,0-7.68,11.93,28,28,0,0,0-1.45,7c-.09,1.2,0,2.41,0,3.62s.29,2.42.39,3.65l-.16,0a23.5,23.5,0,0,1-.32-14.81,27.34,27.34,0,0,1,8.36-12.4,39.51,39.51,0,0,1,12.86-7.44,53.22,53.22,0,0,1,14.49-2.86Z" transform="translate(-99.23 -124.88)"/><path class="cls-24" d="M368.13,143.54a54.14,54.14,0,0,1,14.49,2.86,39.36,39.36,0,0,1,12.86,7.45,27.39,27.39,0,0,1,8.36,12.39,23.5,23.5,0,0,1-.32,14.81l-.16,0c.1-1.23.29-2.44.39-3.64s.06-2.43,0-3.63a28,28,0,0,0-1.45-7,30.26,30.26,0,0,0-7.69-11.93,38.35,38.35,0,0,0-12.25-7.65,53.13,53.13,0,0,0-14.21-3.46Z" transform="translate(-99.23 -124.88)"/></svg>