<svg xmlns="http://www.w3.org/2000/svg" xmlns:xlink="http://www.w3.org/1999/xlink" viewBox="0 0 916 607.36"><defs><style>.cls-1{fill:none;}.cls-2{fill:#3d5984;}.cls-3{fill:#81cef0;}.cls-4{fill:#f29100;}.cls-5{fill:#619fac;}.cls-6{stroke-miterlimit:10;fill:url(#Nuovo_pattern_4);stroke:url(#Nuovo_pattern_4);}</style><pattern id="Nuovo_pattern_4" data-name="Nuovo pattern 4" width="180" height="296" patternUnits="userSpaceOnUse" viewBox="0 0 180 296"><rect class="cls-1" width="180" height="296"/><rect class="cls-2" width="180" height="296"/><path class="cls-3" d="M46.72,106.75a25.61,25.61,0,0,0-1.35-8.48,18.55,18.55,0,0,0-3.95-6.65,18,18,0,0,0-6.33-4.35,21.92,21.92,0,0,0-8.51-1.56A32.34,32.34,0,0,0,4,94.29l2.38,4.19a5.56,5.56,0,0,0,1.54,1.7,3.8,3.8,0,0,0,2.28.69,5.85,5.85,0,0,0,2.92-.75c.88-.49,1.84-1.05,2.88-1.67a20.88,20.88,0,0,1,3.69-1.66,16.05,16.05,0,0,1,5.3-.75,8.39,8.39,0,0,1,6.7,2.65Q34,101.33,34,106.83V110a64.16,64.16,0,0,0-15.53,1.59,34.07,34.07,0,0,0-10,4A15.24,15.24,0,0,0,3,121.07a12.67,12.67,0,0,0-1.61,6.09,16.4,16.4,0,0,0,1.16,6.43,12.61,12.61,0,0,0,3.26,4.63,13.77,13.77,0,0,0,5,2.79,20.8,20.8,0,0,0,6.36.93,27,27,0,0,0,5.3-.48A20.21,20.21,0,0,0,27,140a23.56,23.56,0,0,0,4.11-2.36,44.41,44.41,0,0,0,4.06-3.25l1.16,3.86a3.58,3.58,0,0,0,1.59,2.26,6.38,6.38,0,0,0,2.92.55h5.88ZM16,131.44c-1.36-1-2-2.65-2-5a5.82,5.82,0,0,1,1-3.25,8,8,0,0,1,3.32-2.62,25.08,25.08,0,0,1,6.17-1.84A53.19,53.19,0,0,1,34,118v9.1a26.66,26.66,0,0,1-2.84,2.53,17.89,17.89,0,0,1-2.91,1.8,14.48,14.48,0,0,1-3.21,1.1,17.89,17.89,0,0,1-3.71.36A8.85,8.85,0,0,1,16,131.44Z"/><path class="cls-4" d="M75.66,141.09a3.38,3.38,0,0,0,2.1-.58,3.28,3.28,0,0,0,1.08-2l.59-3.66a26.37,26.37,0,0,0,2.78,2.89,15.52,15.52,0,0,0,6.92,3.6,18.91,18.91,0,0,0,4.55.51,21.16,21.16,0,0,0,17-8.11,27.54,27.54,0,0,0,4.69-9,37.12,37.12,0,0,0,1.65-11.29,43.54,43.54,0,0,0-1.46-11.82A25.53,25.53,0,0,0,111.47,93,17.66,17.66,0,0,0,97,85.87a21.08,21.08,0,0,0-9.54,2,25.82,25.82,0,0,0-7.31,5.48v-31H67v78.75ZM97.1,97a8.6,8.6,0,0,1,3.47,3,15.46,15.46,0,0,1,2.2,5.38,35.88,35.88,0,0,1,.77,8.08,32.91,32.91,0,0,1-.9,8.19,16.87,16.87,0,0,1-2.57,5.75,10.43,10.43,0,0,1-4,3.39,12.56,12.56,0,0,1-5.36,1.11A14.75,14.75,0,0,1,85,130.84,12.54,12.54,0,0,1,80.12,127V102.62a19.86,19.86,0,0,1,5.38-4.85,13.31,13.31,0,0,1,7-1.73A10.75,10.75,0,0,1,97.1,97Z"/><path class="cls-5" d="M178,93.45a26.2,26.2,0,0,0-8.24-5.62,27,27,0,0,0-10.68-2A28.32,28.32,0,0,0,147.72,88a23.08,23.08,0,0,0-8.27,5.85,25.1,25.1,0,0,0-5.06,8.85,34.59,34.59,0,0,0-1.72,11.11,34.1,34.1,0,0,0,1.93,11.9,26.37,26.37,0,0,0,5.25,8.82,22.16,22.16,0,0,0,7.76,5.49,24.2,24.2,0,0,0,9.49,1.88,39.17,39.17,0,0,0,5.78-.43,26.56,26.56,0,0,0,5.64-1.45,25.3,25.3,0,0,0,5.27-2.76,23.56,23.56,0,0,0,4.72-4.27l-3.76-4.77a2.67,2.67,0,0,0-2.39-1.22,3.51,3.51,0,0,0-2.2.77c-.65.52-1.42,1.08-2.3,1.7a16.45,16.45,0,0,1-3.26,1.7,14,14,0,0,1-5.06.76,12.77,12.77,0,0,1-5.62-1.19,11.4,11.4,0,0,1-4.24-3.5,16.42,16.42,0,0,1-2.68-5.69,29.38,29.38,0,0,1-.93-7.74,30.58,30.58,0,0,1,.85-7.5,16.23,16.23,0,0,1,2.57-5.65,11.5,11.5,0,0,1,4.32-3.57,13.84,13.84,0,0,1,6-1.25,14.41,14.41,0,0,1,4.54.61,17.58,17.58,0,0,1,3.15,1.38q1.32.77,2.28,1.38a3.64,3.64,0,0,0,2,.61,2.61,2.61,0,0,0,1.62-.43,6.62,6.62,0,0,0,1.14-1.16Z"/><path class="cls-3" d="M133.28,35.25a25.56,25.56,0,0,0,1.35,8.48,18.55,18.55,0,0,0,4,6.65,18,18,0,0,0,6.33,4.35,21.92,21.92,0,0,0,8.51,1.56,32.34,32.34,0,0,0,22.63-8.58l-2.38-4.19a5.56,5.56,0,0,0-1.54-1.7,3.8,3.8,0,0,0-2.28-.69,5.85,5.85,0,0,0-2.92.75c-.88.49-1.84,1-2.88,1.67a21.62,21.62,0,0,1-3.69,1.67,16.34,16.34,0,0,1-5.3.74,8.39,8.39,0,0,1-6.7-2.65q-2.31-2.64-2.31-8.14V32a64.11,64.11,0,0,0,15.53-1.6,34.07,34.07,0,0,0,10-4A15.24,15.24,0,0,0,177,20.93a12.67,12.67,0,0,0,1.61-6.09,16.4,16.4,0,0,0-1.16-6.43,12.61,12.61,0,0,0-3.26-4.63,13.77,13.77,0,0,0-5-2.79A20.8,20.8,0,0,0,162.8.06a27,27,0,0,0-5.3.48A20.21,20.21,0,0,0,153,2a23.56,23.56,0,0,0-4.11,2.36,42.94,42.94,0,0,0-4.06,3.26l-1.16-3.87a3.64,3.64,0,0,0-1.59-2.26,6.38,6.38,0,0,0-2.92-.55h-5.88Zm30.77-24.69q2,1.5,2,5a5.82,5.82,0,0,1-1,3.25,8,8,0,0,1-3.32,2.62,25.08,25.08,0,0,1-6.17,1.84,53.19,53.19,0,0,1-9.57.72v-9.1a26.66,26.66,0,0,1,2.84-2.53,17.89,17.89,0,0,1,2.91-1.8A14,14,0,0,1,155,9.44a17.21,17.21,0,0,1,3.71-.37A8.85,8.85,0,0,1,164.05,10.56Z"/><path class="cls-4" d="M104.34.91a3.38,3.38,0,0,0-2.1.58,3.28,3.28,0,0,0-1.08,2l-.59,3.66a27.3,27.3,0,0,0-2.78-2.89A15.52,15.52,0,0,0,90.87.62,18.91,18.91,0,0,0,86.32.11a21.16,21.16,0,0,0-17,8.11,27.64,27.64,0,0,0-4.69,9,37.12,37.12,0,0,0-1.65,11.29A43.54,43.54,0,0,0,64.4,40.34,25.53,25.53,0,0,0,68.53,49,17.59,17.59,0,0,0,83,56.13a21.08,21.08,0,0,0,9.54-2,25.82,25.82,0,0,0,7.31-5.48V79.67H113V.91ZM82.9,45a8.6,8.6,0,0,1-3.47-3,15.46,15.46,0,0,1-2.2-5.38,35.88,35.88,0,0,1-.77-8.08,33,33,0,0,1,.9-8.19,16.87,16.87,0,0,1,2.57-5.75,10.43,10.43,0,0,1,4-3.39,12.56,12.56,0,0,1,5.36-1.11A14.75,14.75,0,0,1,95,11.16,12.48,12.48,0,0,1,99.88,15V39.39a20.19,20.19,0,0,1-5.38,4.85,13.4,13.4,0,0,1-7,1.72A10.75,10.75,0,0,1,82.9,45Z"/><path class="cls-5" d="M2,48.55a26.2,26.2,0,0,0,8.24,5.62,27,27,0,0,0,10.68,2A28.32,28.32,0,0,0,32.28,54a23.08,23.08,0,0,0,8.27-5.85,25.1,25.1,0,0,0,5.06-8.85A34.59,34.59,0,0,0,47.33,28.2,34.1,34.1,0,0,0,45.4,16.3a26.37,26.37,0,0,0-5.25-8.82A22.16,22.16,0,0,0,32.39,2,24.2,24.2,0,0,0,22.9.11a39.17,39.17,0,0,0-5.78.43A26.56,26.56,0,0,0,11.48,2,25.3,25.3,0,0,0,6.21,4.75,23.56,23.56,0,0,0,1.49,9l3.76,4.77A2.67,2.67,0,0,0,7.64,15a3.51,3.51,0,0,0,2.2-.77c.65-.52,1.42-1.08,2.3-1.7a16.45,16.45,0,0,1,3.26-1.7,14,14,0,0,1,5.06-.76,12.77,12.77,0,0,1,5.62,1.19,11.4,11.4,0,0,1,4.24,3.5A16.42,16.42,0,0,1,33,20.46a29.38,29.38,0,0,1,.93,7.74,30.58,30.58,0,0,1-.85,7.5,16.23,16.23,0,0,1-2.57,5.65,11.5,11.5,0,0,1-4.32,3.57,13.84,13.84,0,0,1-6,1.25,14.41,14.41,0,0,1-4.54-.61,17.58,17.58,0,0,1-3.15-1.38q-1.32-.76-2.28-1.38a3.64,3.64,0,0,0-2-.61,2.61,2.61,0,0,0-1.62.43,6.62,6.62,0,0,0-1.14,1.16Z"/><path class="cls-3" d="M46.72,260.75a25.61,25.61,0,0,0-1.35-8.48,18.55,18.55,0,0,0-3.95-6.65,18,18,0,0,0-6.33-4.35,21.92,21.92,0,0,0-8.51-1.56A32.34,32.34,0,0,0,4,248.29l2.38,4.19a5.56,5.56,0,0,0,1.54,1.7,3.8,3.8,0,0,0,2.28.69,5.85,5.85,0,0,0,2.92-.75c.88-.49,1.84-1.05,2.88-1.67a20.88,20.88,0,0,1,3.69-1.66,16.05,16.05,0,0,1,5.3-.75,8.39,8.39,0,0,1,6.7,2.65Q34,255.33,34,260.83V264a64.16,64.16,0,0,0-15.53,1.59,34.07,34.07,0,0,0-10,4A15.24,15.24,0,0,0,3,275.07a12.67,12.67,0,0,0-1.61,6.09,16.4,16.4,0,0,0,1.16,6.43,12.61,12.61,0,0,0,3.26,4.63,13.77,13.77,0,0,0,5,2.79,20.8,20.8,0,0,0,6.36.93,27,27,0,0,0,5.3-.48A20.21,20.21,0,0,0,27,294a23.56,23.56,0,0,0,4.11-2.36,44.41,44.41,0,0,0,4.06-3.25l1.16,3.86a3.58,3.58,0,0,0,1.59,2.26,6.38,6.38,0,0,0,2.92.55h5.88ZM16,285.44c-1.36-1-2-2.65-2-5a5.82,5.82,0,0,1,1-3.25,8,8,0,0,1,3.32-2.62,25.08,25.08,0,0,1,6.17-1.84A53.19,53.19,0,0,1,34,272v9.1a26.66,26.66,0,0,1-2.84,2.53,17.89,17.89,0,0,1-2.91,1.8,14.48,14.48,0,0,1-3.21,1.1,17.89,17.89,0,0,1-3.71.36A8.85,8.85,0,0,1,16,285.44Z"/><path class="cls-5" d="M75.66,295.09a3.38,3.38,0,0,0,2.1-.58,3.28,3.28,0,0,0,1.08-2l.59-3.66a26.37,26.37,0,0,0,2.78,2.89,15.52,15.52,0,0,0,6.92,3.6,18.91,18.91,0,0,0,4.55.51,21.16,21.16,0,0,0,17-8.11,27.54,27.54,0,0,0,4.69-9,37.12,37.12,0,0,0,1.65-11.29,43.54,43.54,0,0,0-1.46-11.82,25.53,25.53,0,0,0-4.13-8.64A17.66,17.66,0,0,0,97,239.87a21.08,21.08,0,0,0-9.54,2,25.82,25.82,0,0,0-7.31,5.48v-31H67v78.75ZM97.1,251a8.6,8.6,0,0,1,3.47,3,15.46,15.46,0,0,1,2.2,5.38,35.88,35.88,0,0,1,.77,8.08,32.91,32.91,0,0,1-.9,8.19,16.87,16.87,0,0,1-2.57,5.75,10.43,10.43,0,0,1-4,3.39,12.56,12.56,0,0,1-5.36,1.11A14.75,14.75,0,0,1,85,284.84,12.54,12.54,0,0,1,80.12,281V256.62a19.86,19.86,0,0,1,5.38-4.85,13.31,13.31,0,0,1,7-1.73A10.75,10.75,0,0,1,97.1,251Z"/><path class="cls-4" d="M178,247.45a26.2,26.2,0,0,0-8.24-5.62,27,27,0,0,0-10.68-2A28.32,28.32,0,0,0,147.72,242a23.08,23.08,0,0,0-8.27,5.85,25.1,25.1,0,0,0-5.06,8.85,34.59,34.59,0,0,0-1.72,11.11,34.1,34.1,0,0,0,1.93,11.9,26.37,26.37,0,0,0,5.25,8.82,22.16,22.16,0,0,0,7.76,5.49,24.2,24.2,0,0,0,9.49,1.88,39.17,39.17,0,0,0,5.78-.43,26.56,26.56,0,0,0,5.64-1.45,25.3,25.3,0,0,0,5.27-2.76,23.56,23.56,0,0,0,4.72-4.27l-3.76-4.77a2.67,2.67,0,0,0-2.39-1.22,3.51,3.51,0,0,0-2.2.77c-.65.52-1.42,1.08-2.3,1.7a16.45,16.45,0,0,1-3.26,1.7,14,14,0,0,1-5.06.76,12.77,12.77,0,0,1-5.62-1.19,11.4,11.4,0,0,1-4.24-3.5,16.42,16.42,0,0,1-2.68-5.69,29.38,29.38,0,0,1-.93-7.74,30.58,30.58,0,0,1,.85-7.5,16.23,16.23,0,0,1,2.57-5.65,11.5,11.5,0,0,1,4.32-3.57,13.84,13.84,0,0,1,6-1.25,14.41,14.41,0,0,1,4.54.61,17.58,17.58,0,0,1,3.15,1.38q1.32.77,2.28,1.38a3.64,3.64,0,0,0,2,.61,2.61,2.61,0,0,0,1.62-.43,6.62,6.62,0,0,0,1.14-1.16Z"/><path class="cls-3" d="M133.28,189.25a25.56,25.56,0,0,0,1.35,8.48,18.55,18.55,0,0,0,4,6.65,18,18,0,0,0,6.33,4.35,21.92,21.92,0,0,0,8.51,1.56,32.34,32.34,0,0,0,22.63-8.58l-2.38-4.19a5.56,5.56,0,0,0-1.54-1.7,3.8,3.8,0,0,0-2.28-.69,5.85,5.85,0,0,0-2.92.75c-.88.49-1.84,1.05-2.88,1.67a21.62,21.62,0,0,1-3.69,1.67,16.34,16.34,0,0,1-5.3.74,8.39,8.39,0,0,1-6.7-2.65q-2.31-2.64-2.31-8.14V186a64.11,64.11,0,0,0,15.53-1.6,34.07,34.07,0,0,0,10-4,15.24,15.24,0,0,0,5.38-5.42,12.67,12.67,0,0,0,1.61-6.09,16.4,16.4,0,0,0-1.16-6.43,12.61,12.61,0,0,0-3.26-4.63,13.77,13.77,0,0,0-5-2.79,20.8,20.8,0,0,0-6.36-.93,27,27,0,0,0-5.3.48A20.21,20.21,0,0,0,153,156a23.56,23.56,0,0,0-4.11,2.36,42.94,42.94,0,0,0-4.06,3.26l-1.16-3.87a3.64,3.64,0,0,0-1.59-2.26,6.38,6.38,0,0,0-2.92-.55h-5.88Zm30.77-24.69q2,1.5,2,5a5.82,5.82,0,0,1-1,3.25,8,8,0,0,1-3.32,2.62,25.08,25.08,0,0,1-6.17,1.84,53.19,53.19,0,0,1-9.57.72v-9.1a26.66,26.66,0,0,1,2.84-2.53,17.89,17.89,0,0,1,2.91-1.8,14,14,0,0,1,3.21-1.09,17.21,17.21,0,0,1,3.71-.37A8.85,8.85,0,0,1,164.05,164.56Z"/><path class="cls-5" d="M104.34,154.91a3.38,3.38,0,0,0-2.1.58,3.28,3.28,0,0,0-1.08,2l-.59,3.66a27.3,27.3,0,0,0-2.78-2.89,15.52,15.52,0,0,0-6.92-3.6,18.91,18.91,0,0,0-4.55-.51,21.16,21.16,0,0,0-17,8.11,27.64,27.64,0,0,0-4.69,9,37.12,37.12,0,0,0-1.65,11.29,43.54,43.54,0,0,0,1.46,11.82A25.53,25.53,0,0,0,68.53,203,17.59,17.59,0,0,0,83,210.13a21.08,21.08,0,0,0,9.54-2,25.82,25.82,0,0,0,7.31-5.48v31.06H113V154.91ZM82.9,199a8.6,8.6,0,0,1-3.47-3,15.46,15.46,0,0,1-2.2-5.38,35.88,35.88,0,0,1-.77-8.08,33,33,0,0,1,.9-8.19,16.87,16.87,0,0,1,2.57-5.75,10.43,10.43,0,0,1,4-3.39,12.56,12.56,0,0,1,5.36-1.11A14.75,14.75,0,0,1,95,165.16,12.48,12.48,0,0,1,99.88,169v24.38a20.19,20.19,0,0,1-5.38,4.85,13.4,13.4,0,0,1-7,1.72A10.75,10.75,0,0,1,82.9,199Z"/><path class="cls-4" d="M2,202.55a26.2,26.2,0,0,0,8.24,5.62,27,27,0,0,0,10.68,2A28.32,28.32,0,0,0,32.28,208a23.08,23.08,0,0,0,8.27-5.85,25.1,25.1,0,0,0,5.06-8.85,34.59,34.59,0,0,0,1.72-11.11,34.1,34.1,0,0,0-1.93-11.9,26.37,26.37,0,0,0-5.25-8.82A22.16,22.16,0,0,0,32.39,156a24.2,24.2,0,0,0-9.49-1.88,39.17,39.17,0,0,0-5.78.43A26.56,26.56,0,0,0,11.48,156a25.3,25.3,0,0,0-5.27,2.76A23.56,23.56,0,0,0,1.49,163l3.76,4.77A2.67,2.67,0,0,0,7.64,169a3.51,3.51,0,0,0,2.2-.77c.65-.52,1.42-1.08,2.3-1.7a16.45,16.45,0,0,1,3.26-1.7,14,14,0,0,1,5.06-.76,12.77,12.77,0,0,1,5.62,1.19,11.4,11.4,0,0,1,4.24,3.5A16.42,16.42,0,0,1,33,174.46a29.38,29.38,0,0,1,.93,7.74,30.58,30.58,0,0,1-.85,7.5,16.23,16.23,0,0,1-2.57,5.65,11.5,11.5,0,0,1-4.32,3.57,13.84,13.84,0,0,1-6,1.25,14.41,14.41,0,0,1-4.54-.61,17.58,17.58,0,0,1-3.15-1.38q-1.32-.77-2.28-1.38a3.64,3.64,0,0,0-2-.61,2.61,2.61,0,0,0-1.62.43,6.62,6.62,0,0,0-1.14,1.16Z"/></pattern></defs><title>Risorsa 4</title><g id="Livello_2" data-name="Livello 2"><g id="Livello_1-2" data-name="Livello 1"><rect class="cls-6" x="0.5" y="0.5" width="915" height="606.36" rx="12"/></g></g></svg>