<svg xmlns="http://www.w3.org/2000/svg" xmlns:xlink="http://www.w3.org/1999/xlink" viewBox="0 0 916 607.36"><defs><style>.cls-1{fill:none;}.cls-2{fill:#3d5984;}.cls-3{fill:#f29100;}.cls-4{fill:#f7c2bd;}.cls-5{fill:#81cef0;}.cls-6{stroke-miterlimit:10;fill:url(#Nuovo_pattern);stroke:url(#Nuovo_pattern);}</style><pattern id="Nuovo_pattern" data-name="Nuovo pattern" width="323.87" height="581.22" patternUnits="userSpaceOnUse" viewBox="0 0 323.87 581.22"><rect class="cls-1" width="323.87" height="581.22"/><rect class="cls-2" x="0.43" y="0.11" width="323" height="581"/><path class="cls-3" d="M131.65,283.46H200V267.64H177.8V159.71H160.45l-37.69,32,6.67,9.14a5.87,5.87,0,0,0,2.09,1.67,6.76,6.76,0,0,0,3.12.72,7.91,7.91,0,0,0,2.27-.34,6.25,6.25,0,0,0,2.26-1.28L157,186.8q-.25,4.62-.26,8.8v72h-25Z"/><path class="cls-4" d="M240.67,226A38.31,38.31,0,0,0,228,232.74a37.3,37.3,0,0,0-9.18,11.19,45.77,45.77,0,0,0-5,15.6l11.11,2a16.24,16.24,0,0,0,2.82.26,7.78,7.78,0,0,0,4.79-1.41,8.61,8.61,0,0,0,2.82-4.66,20.08,20.08,0,0,1,6.88-10.34q4.9-3.84,12.51-3.84a22.28,22.28,0,0,1,7.4,1.15,15,15,0,0,1,9.35,9.14,21.88,21.88,0,0,1,1.29,7.82,31.84,31.84,0,0,1-1.33,9.28,39.36,39.36,0,0,1-3.84,8.67,61.11,61.11,0,0,1-6.24,8.63q-3.72,4.37-8.42,9.15l-37.52,37.6a12.39,12.39,0,0,0-2.86,4.27,12.22,12.22,0,0,0-.9,4.45v7h84.78V336a6.72,6.72,0,0,0-2-5.09,7.53,7.53,0,0,0-5.43-1.92h-31.7a46.47,46.47,0,0,0-7.52.64,68,68,0,0,0-8,1.84L269.68,303q5-5.13,9.49-10.09a75.41,75.41,0,0,0,7.91-10.25,52.69,52.69,0,0,0,5.38-11.11,38.48,38.48,0,0,0,2-12.65,35.88,35.88,0,0,0-2.82-14.44,32.25,32.25,0,0,0-7.86-11.11,35.2,35.2,0,0,0-12.14-7.14A46.43,46.43,0,0,0,256,223.72,50.75,50.75,0,0,0,240.67,226Z"/><path class="cls-5" d="M232.25,91.47a38,38,0,0,0-12.65,6.76,37.36,37.36,0,0,0-9.18,11.2,45.7,45.7,0,0,0-5,15.6L216.57,127a17.79,17.79,0,0,0,2.91.25,7.47,7.47,0,0,0,4.7-1.4,9.38,9.38,0,0,0,2.82-4.66,20.75,20.75,0,0,1,6.92-10.2,19.35,19.35,0,0,1,12.48-4q8.28,0,13.07,4.49t4.79,13.29a22.59,22.59,0,0,1-1.2,7.52,12.88,12.88,0,0,1-4.23,5.85,21.82,21.82,0,0,1-8.16,3.81,51.25,51.25,0,0,1-12.91,1.36v15.13a62.39,62.39,0,0,1,15,1.45,21.36,21.36,0,0,1,8.59,4,11.93,11.93,0,0,1,3.93,6.2,32,32,0,0,1,.94,8.07,19.44,19.44,0,0,1-1.32,7,18.85,18.85,0,0,1-4,6.28,20.38,20.38,0,0,1-6.71,4.57,23.33,23.33,0,0,1-9.4,1.75,21.84,21.84,0,0,1-8.25-1.41,21,21,0,0,1-6-3.67,23.93,23.93,0,0,1-4.4-5.17c-1.23-1.94-2.35-3.9-3.38-5.9a6.28,6.28,0,0,0-2.69-2.73,8.23,8.23,0,0,0-4-.94,12.26,12.26,0,0,0-4.87,1l-9.32,3.85a69.2,69.2,0,0,0,6.15,14,38.22,38.22,0,0,0,8.72,10.26,35.26,35.26,0,0,0,12,6.32A55.11,55.11,0,0,0,245,215.52,52.29,52.29,0,0,0,261.22,213a40.12,40.12,0,0,0,13.46-7.31,35,35,0,0,0,9.23-11.92,37.15,37.15,0,0,0,3.42-16.32q0-10.86-5.47-18t-16.58-10.69a36.91,36.91,0,0,0,8.25-3.84,23.37,23.37,0,0,0,6.15-5.64,24.42,24.42,0,0,0,3.85-7.82,36.89,36.89,0,0,0,1.32-10.39,30.47,30.47,0,0,0-2.6-12.56,29.66,29.66,0,0,0-7.48-10.13A35.52,35.52,0,0,0,263,91.64a46.13,46.13,0,0,0-15.43-2.43A50.44,50.44,0,0,0,232.25,91.47Z"/><path class="cls-3" d="M201.7,309.7H133.33v15.81h22.22V433.44H172.9l37.69-32.05-6.67-9.14a5.87,5.87,0,0,0-2.09-1.67,6.76,6.76,0,0,0-3.12-.72,7.91,7.91,0,0,0-2.27.34,6.25,6.25,0,0,0-2.26,1.28L176.4,406.35c.17-3.07.26-6,.26-8.8v-72h25Z"/><path class="cls-4" d="M102.68,344.17a38,38,0,0,0,12.65-6.76,37.3,37.3,0,0,0,9.18-11.19,45.48,45.48,0,0,0,5-15.6l-11.11-2a17.28,17.28,0,0,0-2.82-.26,7.73,7.73,0,0,0-4.78,1.41,8.56,8.56,0,0,0-2.83,4.66,20.09,20.09,0,0,1-6.87,10.34q-4.92,3.84-12.52,3.84a22.28,22.28,0,0,1-7.4-1.15,15,15,0,0,1-9.35-9.14,21.88,21.88,0,0,1-1.29-7.82,31.84,31.84,0,0,1,1.33-9.28,39.36,39.36,0,0,1,3.84-8.67A61.11,61.11,0,0,1,81.91,284q3.72-4.36,8.42-9.15l37.52-37.6a12.39,12.39,0,0,0,2.86-4.27,12.22,12.22,0,0,0,.9-4.45v-7H46.83v12.64a6.72,6.72,0,0,0,2,5.09,7.53,7.53,0,0,0,5.43,1.92H86a46.47,46.47,0,0,0,7.52-.64,68,68,0,0,0,8-1.84L73.67,267.12q-5,5.13-9.49,10.09a75.41,75.41,0,0,0-7.91,10.25,52.69,52.69,0,0,0-5.38,11.11,38.48,38.48,0,0,0-2,12.65,35.88,35.88,0,0,0,2.82,14.44,32.25,32.25,0,0,0,7.86,11.11,35.2,35.2,0,0,0,12.14,7.14,46.43,46.43,0,0,0,15.64,2.52A50.75,50.75,0,0,0,102.68,344.17Z"/><path class="cls-5" d="M101.1,501.68a38,38,0,0,0,12.65-6.76,37.36,37.36,0,0,0,9.18-11.2,45.7,45.7,0,0,0,5-15.6l-11.11-1.93a17.7,17.7,0,0,0-2.91-.25,7.47,7.47,0,0,0-4.7,1.4,9.38,9.38,0,0,0-2.82,4.66,20.75,20.75,0,0,1-6.92,10.2,19.35,19.35,0,0,1-12.48,4q-8.28,0-13.07-4.49t-4.79-13.29a22.59,22.59,0,0,1,1.2-7.52A12.88,12.88,0,0,1,74.52,455a21.82,21.82,0,0,1,8.16-3.81,51.25,51.25,0,0,1,12.91-1.36V434.72a62.39,62.39,0,0,1-15-1.45,21.36,21.36,0,0,1-8.59-4,12,12,0,0,1-3.93-6.2,32,32,0,0,1-.94-8.07,19.44,19.44,0,0,1,1.32-7,18.85,18.85,0,0,1,4-6.28,20.38,20.38,0,0,1,6.71-4.57,23.33,23.33,0,0,1,9.4-1.75,21.84,21.84,0,0,1,8.25,1.41,21,21,0,0,1,6,3.67,23.93,23.93,0,0,1,4.4,5.17c1.23,1.94,2.35,3.9,3.38,5.9a6.33,6.33,0,0,0,2.69,2.73,8.23,8.23,0,0,0,4,.94,12.26,12.26,0,0,0,4.87-1l9.32-3.85a69.2,69.2,0,0,0-6.15-14,38.22,38.22,0,0,0-8.72-10.26,35.26,35.26,0,0,0-12-6.32,55.11,55.11,0,0,0-16.24-2.14,52.29,52.29,0,0,0-16.19,2.48,40.12,40.12,0,0,0-13.46,7.31,34.91,34.91,0,0,0-9.23,11.92A37.15,37.15,0,0,0,46,415.66q0,10.86,5.47,18t16.58,10.69a36.91,36.91,0,0,0-8.25,3.84,23.37,23.37,0,0,0-6.15,5.64,24.32,24.32,0,0,0-3.85,7.82,36.89,36.89,0,0,0-1.32,10.39,30.47,30.47,0,0,0,2.6,12.56,29.66,29.66,0,0,0,7.48,10.13,35.52,35.52,0,0,0,11.75,6.75,46.13,46.13,0,0,0,15.43,2.43A50.44,50.44,0,0,0,101.1,501.68Z"/><path class="cls-4" d="M148.38,126.24a38.14,38.14,0,0,0,13.72,4.17A37.45,37.45,0,0,0,176.51,129a45.8,45.8,0,0,0,14.54-7.53l-6.47-9.24a18.36,18.36,0,0,0-1.81-2.18,7.74,7.74,0,0,0-4.38-2.38,8.58,8.58,0,0,0-5.29,1.3,20.14,20.14,0,0,1-12.18,2.44q-6.19-.75-11.57-6.13a22.17,22.17,0,0,1-4.41-6,15.07,15.07,0,0,1-.15-13.09,21.89,21.89,0,0,1,4.62-6.43,31.94,31.94,0,0,1,7.49-5.62,39.58,39.58,0,0,1,8.86-3.42A61.93,61.93,0,0,1,176.27,69q5.72-.45,12.42-.51l53.12-.06a12.46,12.46,0,0,0,5-1,12.17,12.17,0,0,0,3.78-2.51l5-5L195.64,0,186.7,8.94a6.74,6.74,0,0,0-2.18,5,7.56,7.56,0,0,0,2.48,5.2l22.42,22.42a46.33,46.33,0,0,0,5.77,4.86,66.91,66.91,0,0,0,7,4.38l-39.83.42q-7.12.13-13.83.43a74.33,74.33,0,0,0-12.85,1.66A53.12,53.12,0,0,0,144,57.38a38.51,38.51,0,0,0-10.36,7.52,35.87,35.87,0,0,0-8.22,12.21,32.34,32.34,0,0,0-2.3,13.41,35,35,0,0,0,3.54,13.63A46.3,46.3,0,0,0,135.93,117,50.57,50.57,0,0,0,148.38,126.24Z"/><path class="cls-5" d="M25.23,204.31A37.88,37.88,0,0,0,39,208.48a37.45,37.45,0,0,0,14.41-1.42,46,46,0,0,0,14.54-7.53l-6.49-9.22a17.1,17.1,0,0,0-1.88-2.24,7.42,7.42,0,0,0-4.31-2.33,9.3,9.3,0,0,0-5.29,1.3,20.8,20.8,0,0,1-12.11,2.32,19.37,19.37,0,0,1-11.63-6q-5.85-5.86-6.07-12.42t6-12.78a22.81,22.81,0,0,1,6.17-4.47,12.87,12.87,0,0,1,7.13-1.15,22,22,0,0,1,8.46,3.08A51.79,51.79,0,0,1,58,163.76l10.7-10.69a61.63,61.63,0,0,1-9.58-11.64,21.34,21.34,0,0,1-3.23-8.91,12,12,0,0,1,1.6-7.16,32.44,32.44,0,0,1,5-6.38,19.4,19.4,0,0,1,5.86-4,18.75,18.75,0,0,1,7.29-1.61,20.5,20.5,0,0,1,8,1.51,23.4,23.4,0,0,1,7.89,5.41,21.74,21.74,0,0,1,4.83,6.83A21.12,21.12,0,0,1,98,134a23.74,23.74,0,0,1-.55,6.77q-.75,3.34-1.78,6.56a6.42,6.42,0,0,0,0,3.83,8.33,8.33,0,0,0,2.14,3.48,12.35,12.35,0,0,0,4.17,2.72l9.31,3.86A69.12,69.12,0,0,0,116.84,147a38.2,38.2,0,0,0,1.09-13.41,35.29,35.29,0,0,0-4.05-13,55.37,55.37,0,0,0-10-13,52.2,52.2,0,0,0-13.21-9.7A40.42,40.42,0,0,0,76,93.51a35,35,0,0,0-15,1.91,37.17,37.17,0,0,0-14,9.12q-7.66,7.68-8.88,16.62t4.17,19.28a37.62,37.62,0,0,0-8.55-3.12A23.48,23.48,0,0,0,25.5,137a24.34,24.34,0,0,0-8.25,2.81A36.77,36.77,0,0,0,9,146.18a30.3,30.3,0,0,0-7,10.72A29.63,29.63,0,0,0,.06,169.35a35.33,35.33,0,0,0,3.53,13.09,46.14,46.14,0,0,0,9.19,12.63A50.52,50.52,0,0,0,25.23,204.31Z"/><path class="cls-4" d="M196.49,455a38.33,38.33,0,0,0-13.72-4.17,37.45,37.45,0,0,0-14.41,1.42,45.8,45.8,0,0,0-14.54,7.53l6.47,9.24a17.44,17.44,0,0,0,1.81,2.18,7.81,7.81,0,0,0,4.38,2.39,8.64,8.64,0,0,0,5.29-1.3A20.08,20.08,0,0,1,184,469.82q6.2.75,11.57,6.13a22,22,0,0,1,4.41,6.05,15,15,0,0,1,.15,13.08,21.58,21.58,0,0,1-4.62,6.43,31.94,31.94,0,0,1-7.49,5.62,39.58,39.58,0,0,1-8.86,3.42,61,61,0,0,1-10.51,1.69q-5.72.45-12.42.51l-53.12.07a12.41,12.41,0,0,0-8.82,3.5l-5,5,59.95,59.94,9-8.94a6.71,6.71,0,0,0,2.17-5,7.52,7.52,0,0,0-2.48-5.19l-22.42-22.42a45.53,45.53,0,0,0-5.77-4.87,66.91,66.91,0,0,0-7-4.38l39.83-.42q7.13-.12,13.83-.43a74.33,74.33,0,0,0,12.85-1.66,51.93,51.93,0,0,0,11.66-4,38.35,38.35,0,0,0,10.36-7.52,35.87,35.87,0,0,0,8.22-12.21,32.34,32.34,0,0,0,2.3-13.41,35.09,35.09,0,0,0-3.54-13.63,46.3,46.3,0,0,0-9.27-12.84A50.57,50.57,0,0,0,196.49,455Z"/><path class="cls-5" d="M298.64,368.91a37.88,37.88,0,0,0-13.72-4.17,37.45,37.45,0,0,0-14.41,1.42A45.69,45.69,0,0,0,256,373.69l6.49,9.22a17.87,17.87,0,0,0,1.87,2.24,7.44,7.44,0,0,0,4.32,2.33,9.3,9.3,0,0,0,5.29-1.3,20.79,20.79,0,0,1,12.1-2.32,19.37,19.37,0,0,1,11.64,6q5.85,5.85,6.07,12.42t-6,12.78a22.81,22.81,0,0,1-6.17,4.47,12.88,12.88,0,0,1-7.13,1.15,22,22,0,0,1-8.46-3.08,51.49,51.49,0,0,1-10.09-8.16l-10.7,10.69a61.63,61.63,0,0,1,9.58,11.64A21.34,21.34,0,0,1,268,440.7a12,12,0,0,1-1.6,7.16,32.44,32.44,0,0,1-5,6.38,19.33,19.33,0,0,1-5.87,4,18.66,18.66,0,0,1-7.28,1.61,20.5,20.5,0,0,1-8-1.51,23.44,23.44,0,0,1-7.89-5.41,21.94,21.94,0,0,1-4.84-6.83,21.1,21.1,0,0,1-1.66-6.86,23.74,23.74,0,0,1,.55-6.77q.75-3.34,1.78-6.56a6.42,6.42,0,0,0,0-3.83,8.26,8.26,0,0,0-2.15-3.48,12.16,12.16,0,0,0-4.17-2.72l-9.3-3.86A69.12,69.12,0,0,0,207,426.26a38.2,38.2,0,0,0-1.09,13.41,35.35,35.35,0,0,0,4.05,13,55.57,55.57,0,0,0,10,13,52.2,52.2,0,0,0,13.21,9.7,40.23,40.23,0,0,0,14.68,4.35,35,35,0,0,0,15-1.91,37.17,37.17,0,0,0,14-9.12q7.67-7.68,8.88-16.62t-4.17-19.28A37.62,37.62,0,0,0,290,435.9a23.48,23.48,0,0,0,8.34.36,24.34,24.34,0,0,0,8.25-2.81A36.77,36.77,0,0,0,314.9,427a30.3,30.3,0,0,0,7-10.72,29.63,29.63,0,0,0,1.87-12.45,35.12,35.12,0,0,0-3.54-13.09,45.89,45.89,0,0,0-9.18-12.63A50.52,50.52,0,0,0,298.64,368.91Z"/></pattern></defs><title>Risorsa 5</title><g id="Livello_2" data-name="Livello 2"><g id="Livello_1-2" data-name="Livello 1"><rect class="cls-6" x="0.5" y="0.5" width="915" height="606.36" rx="12"/></g></g></svg>