<svg id="Livello_1" data-name="Livello 1" xmlns="http://www.w3.org/2000/svg" xmlns:xlink="http://www.w3.org/1999/xlink" viewBox="0 0 462.47 657.34"><defs><style>.cls-1,.cls-16{fill:none;}.cls-12,.cls-13,.cls-14,.cls-18,.cls-2,.cls-20,.cls-4,.cls-8{fill:#1e1e1c;}.cls-10,.cls-11,.cls-12,.cls-13,.cls-14,.cls-16,.cls-19,.cls-2,.cls-20,.cls-3,.cls-4,.cls-5,.cls-7,.cls-8{stroke:#1e1e1c;}.cls-10,.cls-11,.cls-12,.cls-13,.cls-14,.cls-15,.cls-16,.cls-19,.cls-2,.cls-20,.cls-21,.cls-22,.cls-3,.cls-4,.cls-5,.cls-7,.cls-8{stroke-miterlimit:10;}.cls-2,.cls-3{stroke-width:1.45px;}.cls-10,.cls-11,.cls-15,.cls-17,.cls-19,.cls-21,.cls-22,.cls-3,.cls-5{fill:#fff;}.cls-4{stroke-width:1.27px;}.cls-5{stroke-width:0.97px;}.cls-6{clip-path:url(#clip-path);}.cls-7{fill:#009640;stroke-width:1.36px;}.cls-8{stroke-width:1.49px;}.cls-9{clip-path:url(#clip-path-2);}.cls-10{stroke-width:1.61px;}.cls-11,.cls-12,.cls-16{stroke-width:1.52px;}.cls-13{stroke-width:1.92px;}.cls-14{stroke-width:0.48px;}.cls-15,.cls-21,.cls-22{stroke:#fff;}.cls-15{stroke-width:0.09px;}.cls-19{stroke-width:0.84px;}.cls-20{stroke-width:1.12px;}.cls-21{stroke-width:0.29px;}.cls-22{stroke-width:0.05px;}</style><clipPath id="clip-path" transform="translate(-66.4 -124.84)"><rect class="cls-1" x="151.57" y="234.74" width="282.49" height="433.41" rx="12"/></clipPath><clipPath id="clip-path-2" transform="translate(-66.4 -124.84)"><rect class="cls-1" x="108.89" y="377.23" width="373.01" height="339.1"/></clipPath></defs><title>Panda</title><ellipse class="cls-2" cx="416.27" cy="401.93" rx="57.31" ry="147.43" transform="translate(-228.69 287.23) rotate(-45)"/><ellipse class="cls-3" cx="179.01" cy="401.93" rx="147.43" ry="57.31" transform="translate(-298.18 119.46) rotate(-45)"/><circle class="cls-3" cx="108.7" cy="55.99" r="55.27"/><circle class="cls-4" cx="112.6" cy="52.34" r="48.2"/><circle class="cls-2" cx="349.86" cy="59.41" r="55.27"/><circle class="cls-5" cx="352.21" cy="57.92" r="37.09"/><g class="cls-6"><ellipse class="cls-7" cx="226.41" cy="486.71" rx="111.63" ry="169.95"/></g><rect class="cls-8" x="87.75" y="111.07" width="282.49" height="433.41" rx="12"/><g class="cls-9"><ellipse class="cls-10" cx="228.99" cy="252.38" rx="100.78" ry="147.19"/></g><ellipse class="cls-11" cx="228.99" cy="150.19" rx="167.83" ry="133.9"/><ellipse class="cls-12" cx="216.21" cy="245.02" rx="75.63" ry="43.62" transform="translate(-176.61 104.86) rotate(-45.89)"/><ellipse class="cls-13" cx="365.86" cy="248.71" rx="60.32" ry="87.19" transform="translate(-136.34 199.97) rotate(-44.11)"/><ellipse class="cls-3" cx="226.41" cy="165.23" rx="68.18" ry="50.55"/><ellipse class="cls-14" cx="226.41" cy="141.07" rx="24.24" ry="15.48"/><ellipse class="cls-15" cx="304.12" cy="257.45" rx="2.27" ry="5.48" transform="translate(-97.38 348.22) rotate(-73.01)"/><line class="cls-16" x1="226.41" y1="154.55" x2="226.41" y2="176.45"/><path class="cls-17" d="M278.12,299.46c3,3.84,10.86,4.81,14.7,1.82" transform="translate(-66.4 -124.84)"/><path class="cls-18" d="M277.48,300.1c3.66,4.25,11.21,5.2,15.8,2,.94-.67,0-2.24-.92-1.57a10.83,10.83,0,0,1-13.6-1.68c-.76-.89-2,.4-1.28,1.28Z" transform="translate(-66.4 -124.84)"/><path class="cls-17" d="M307.52,299.46c-3,3.84-10.87,4.81-14.7,1.82" transform="translate(-66.4 -124.84)"/><path class="cls-18" d="M306.88,298.82a10.84,10.84,0,0,1-13.6,1.68c-1-.67-1.87.9-.92,1.57,4.59,3.23,12.14,2.28,15.8-2,.76-.88-.52-2.17-1.28-1.28Z" transform="translate(-66.4 -124.84)"/><circle class="cls-19" cx="164.5" cy="106.69" r="25.92"/><circle class="cls-20" cx="167.73" cy="104.94" r="17.25"/><circle class="cls-21" cx="167.17" cy="104.94" r="4.4"/><circle class="cls-22" cx="173.04" cy="108.05" r="0.73"/><path class="cls-17" d="M230.94,203.53a64,64,0,0,0-9.89,2.1,45.87,45.87,0,0,0-9.27,3.84,26.64,26.64,0,0,0-7.62,6.26,12.36,12.36,0,0,0-2.31,4.26,10.13,10.13,0,0,0-.18,4.9l-.11,0a9,9,0,0,1-.43-5.11,12.07,12.07,0,0,1,2.18-4.74,22.94,22.94,0,0,1,8.06-6.36,45.63,45.63,0,0,1,9.54-3.6,63.26,63.26,0,0,1,10-1.7Z" transform="translate(-66.4 -124.84)"/><circle class="cls-19" cx="289.2" cy="106.01" r="25.92"/><circle class="cls-20" cx="285.97" cy="104.26" r="17.25"/><circle class="cls-21" cx="286.53" cy="104.26" r="4.4"/><circle class="cls-22" cx="280.66" cy="107.37" r="0.73"/><path class="cls-17" d="M355.59,202.74a64.2,64.2,0,0,1,10,1.69,46.77,46.77,0,0,1,9.54,3.6,23.06,23.06,0,0,1,8.06,6.36,12.37,12.37,0,0,1,2.19,4.74,9.06,9.06,0,0,1-.44,5.11l-.1,0a10.13,10.13,0,0,0-.19-4.9,12.27,12.27,0,0,0-2.31-4.26,26.48,26.48,0,0,0-7.62-6.26,45.87,45.87,0,0,0-9.27-3.84,63.84,63.84,0,0,0-9.88-2.1Z" transform="translate(-66.4 -124.84)"/><ellipse class="cls-11" cx="170.51" cy="536.34" rx="60.09" ry="25.6"/><ellipse class="cls-11" cx="290.7" cy="536.34" rx="60.09" ry="25.6"/></svg>