<svg xmlns="http://www.w3.org/2000/svg" viewBox="0 0 83.2 20.12"><defs><style>.cls-1{fill:#e94f1c;}</style></defs><title>Risorsa 5</title><g id="Livello_2" data-name="Livello 2"><g id="Livello_1-2" data-name="Livello 1"><path class="cls-1" d="M75,19.88c-.32,0-.2.2-.25.24C75.32,20.05,75,19.82,75,19.88Z"/><polygon class="cls-1" points="79.55 17.67 79.53 17.79 79.93 17.15 79.55 17.67"/><path class="cls-1" d="M82,13.82c-.41.32-.46,1.61-1.07,2.24l-.15.06v.47A11,11,0,0,0,82,13.82Z"/><path class="cls-1" d="M83,11.43c-.14.14-.12-.48,0,.52l0-.09C83,11.77,83,11.64,83,11.43Z"/><path class="cls-1" d="M83,11.86c0,.46.12-.31,0,0Z"/><path class="cls-1" d="M82.91,9.83l.13.58c.08-.12.1-.64.16-.45C83.13,9.37,83.05,9.49,82.91,9.83Z"/><path class="cls-1" d="M82.65,9.28l.06.3C82.74,9.53,82.75,9.45,82.65,9.28Z"/><path class="cls-1" d="M82.82,10.21l-.11-.63c-.06.08-.18.09,0,.29C82.64,9.82,82.74,9.94,82.82,10.21Z"/><path class="cls-1" d="M82.76,10.57c-.07.33-.12.75-.25.17C82.56,11.84,82.81,11.68,82.76,10.57Z"/><path class="cls-1" d="M81.68,13.51l-.21.41c0,.14,0,.28,0,.42C81.49,14.14,81.8,13.51,81.68,13.51Z"/><path class="cls-1" d="M82.67,5.75c-.09,0-.11.29-.2.37l.21.47C82.67,6.32,82.59,5.82,82.67,5.75Z"/><path class="cls-1" d="M82.47,6.12c-.11-.24-.25-.46-.37-.68C82.32,6.08,82.4,6.18,82.47,6.12Z"/><polygon class="cls-1" points="82.26 9.18 82.53 10.23 82.25 8.97 82.26 9.18"/><path class="cls-1" d="M81.22,3.11l.41.25a6.54,6.54,0,0,0-.71-.45Z"/><path class="cls-1" d="M79.76,1.75c.36.09-.23-.47.11-.33A3.53,3.53,0,0,0,78.49.88,2.87,2.87,0,0,1,79.76,1.75Z"/><path class="cls-1" d="M77.79.74l.7.14A2.35,2.35,0,0,0,77.79.74Z"/><path class="cls-1" d="M81.55,4.28a.78.78,0,0,0-.15-.62,2.28,2.28,0,0,1,0,.37Z"/><path class="cls-1" d="M81.4,4h0c-.17-.27-.31-.45-.37-.53S81.2,3.72,81.4,4Z"/><path class="cls-1" d="M81.59,4.35l0-.07S81.55,4.34,81.59,4.35Z"/><path class="cls-1" d="M82.38,7.38c-.16-.43-.51-1.22-.49-.37C82.08,7.27,82.1,6.77,82.38,7.38Z"/><path class="cls-1" d="M81.54,4.79a7.12,7.12,0,0,1,.28.72c.05,0,.08-.2.21,0C81.89,5.24,81.7,5,81.54,4.79Z"/><path class="cls-1" d="M81.29,4.5c.08.1.18.19.25.29a1.58,1.58,0,0,0-.13-.26Z"/><path class="cls-1" d="M79,1.55c-.34-.11-.68-.27-1.08-.43.4.22.81.46,1.18.7C79.14,1.8,79.38,1.81,79,1.55Z"/><path class="cls-1" d="M80.27,2.64l-.07,0S80.25,2.67,80.27,2.64Z"/><polygon class="cls-1" points="73.91 0.47 73.97 0.51 73.98 0.48 73.91 0.47"/><path class="cls-1" d="M79.09,1.9a1.49,1.49,0,0,0,.64.37l-.68-.45S79,1.85,79.09,1.9Z"/><path class="cls-1" d="M76.6.48c.17.09.36.17.56.26C77,.63,76.68.44,76.6.48Z"/><path class="cls-1" d="M80.16,2.48l0,0C80.15,2.39,80.14,2.42,80.16,2.48Z"/><path class="cls-1" d="M80.16,2.48a2.11,2.11,0,0,0-.43-.21c.17.12.32.24.47.33A.34.34,0,0,1,80.16,2.48Z"/><path class="cls-1" d="M72.83,1.85c0-.2.82-.38,1.48-.17.65-.15.23-.8-.34-1.17,0,.09,0,.17-.69.29.23.11,1.49.25.92.43-.89.1-.73-.07-1.16-.18.37.25-1.13.36-.94.73l.78-.13C72.9,1.71,72.61,1.8,72.83,1.85Z"/><path class="cls-1" d="M75.33.56c.1,0,.21,0,.32,0A5.56,5.56,0,0,1,74.57.24c-.46.1-.56.17-.59.24h.68l.78.05Z"/><path class="cls-1" d="M77.07.86c-.31.13-1,0-.66.38.87.21.65,0,1.2.09-1.41-.46.45,0-.53-.45a6.75,6.75,0,0,1,.79.24L77.16.74l0,0h0c.06,0,.07.07,0,0s0,0,0,0a.19.19,0,0,1-.09,0c-.42-.15,0-.07.09,0s0,0,0,0h0A8.15,8.15,0,0,0,75.65.56C76,.64,76.37.68,77.07.86Z"/><path class="cls-1" d="M81.26,6.41a.07.07,0,0,1,0-.06C81.24,6.28,81.22,6.25,81.26,6.41Z"/><path class="cls-1" d="M81.2,5.85a.88.88,0,0,1,.26.44c0,.29-.1,0-.16.06.1.17.32.62.27,0l-.06-.09A5,5,0,0,1,81.39,5,2.83,2.83,0,0,0,81.2,5.85Z"/><path class="cls-1" d="M79.71,3a7,7,0,0,0-1-.64c.13.15.25.33.37.5l0-.11C79.62,3.16,79.59,3,79.71,3Z"/><polygon class="cls-1" points="73.79 0.37 73.93 0.14 73.3 0.46 73.79 0.37"/><polygon class="cls-1" points="72.37 0.4 72.42 0.2 72.05 0.32 72.37 0.4"/><path class="cls-1" d="M2.57,13.14l.12.24A.75.75,0,0,0,2.57,13.14Z"/><path class="cls-1" d="M2.45,11.08,2.36,11C2.41,11.13,2.45,11.18,2.45,11.08Z"/><path class="cls-1" d="M37.57.42c-.47-.19-1-.47-.94-.25l.15.22A2.22,2.22,0,0,1,37.57.42Z"/><path class="cls-1" d="M13.73,1.71l.14.07.31-.21Z"/><path class="cls-1" d="M13.4,2.61l-.61-.14A3.11,3.11,0,0,0,13.4,2.61Z"/><path class="cls-1" d="M11.55,17.25l.37-.22C11.33,17,11.59,17.14,11.55,17.25Z"/><path class="cls-1" d="M57.86.48a5.6,5.6,0,0,0-1-.14C57.34.47,57.73.66,57.86.48Z"/><path class="cls-1" d="M.17,12.58c0,.22.12.31.16.3C.26,12.66.23,12.53.17,12.58Z"/><path class="cls-1" d="M55.69.34,55.9.4a5.56,5.56,0,0,1,1-.06A1.91,1.91,0,0,0,55.69.34Z"/><path class="cls-1" d="M57.49,17.43l.11,0S57.56,17.43,57.49,17.43Z"/><path class="cls-1" d="M70.88,19.62a4.45,4.45,0,0,1-.55,0A2.85,2.85,0,0,0,70.88,19.62Z"/><path class="cls-1" d="M66.67.3c.3,0,0,0,0,0Z"/><path class="cls-1" d="M68.13,1.16c-.07,0-.11.05-.12.1A.2.2,0,0,1,68.13,1.16Z"/><path class="cls-1" d="M52.69,1.7h0Z"/><path class="cls-1" d="M67.12.4,66.74.33Z"/><path class="cls-1" d="M67.06.3l.26,0S67.33.26,67.06.3Z"/><path class="cls-1" d="M66.25.31l.49,0c-.06,0-.09,0-.07,0Z"/><path class="cls-1" d="M32.87,18l.07,0C33.24,17.94,33.11,18,32.87,18Z"/><path class="cls-1" d="M29.74,2.67h0Z"/><path class="cls-1" d="M28.67,2.83a1.3,1.3,0,0,1,1.06-.18L29.38,2Z"/><path class="cls-1" d="M5.23,16.67a3.81,3.81,0,0,1-.4-.5c.76.17,1.13.42.81,0-.2.27-.71,0-1.14-.37s-.77-.82-1.08-.67c0-.13-.06-.28-.09-.42,0,.1.09.1.15.2A.63.63,0,0,0,3,14.3a.91.91,0,0,1-.59-.75c0-.37,0-.64.13-.41a6.55,6.55,0,0,1-.28-.78c0-.24.13-.19.12.05,0-.38-.06-.9-.07-1.39h0A6.84,6.84,0,0,1,2,10.1c.09-.38.07.19.15.09L2,9.37c.17-.33.34.35.32.92.34-.39.3-.56.22-.84a2.17,2.17,0,0,1-.1-.54A2,2,0,0,1,2.57,8c0,.2,0,.42.07.7a1.49,1.49,0,0,0,.21-.39A1.93,1.93,0,0,0,3,8a2.19,2.19,0,0,1,.32-.79,4.9,4.9,0,0,0-.48.56c-.19.21-.35.35-.41,0a2,2,0,0,0,.12-.88c.23.06.27-.32.46-.77l.28.16c.12-.48,0-.52,0-.86A.75.75,0,0,1,4.15,5c.63-.62-.73.2,0-.64C4.78,4,5.12,3.53,6,3c.56-.09,0,.21.19.23a3.59,3.59,0,0,1,.39-.39c.12,0,.1.07.09.11.38-.2,0-.33.62-.53.08-.2.44-.08.9,0a2.6,2.6,0,0,0,1.56,0c.24.1-.11.2,0,.32a12.12,12.12,0,0,0,2.21-.54l.92.21c-.68-.24.19-.52.94-.76-.24-.11-.44-.21-.58-.26l1.21-.17c.14.05,0,.16-.18.29l.22-.08c.44.12.21.31-.1.49l-.43-.2c-.3.19-.58.41-.52.6a1.4,1.4,0,0,1,.4-.09c-.08,0-.13.1-.09.13s.16,0,.36-.12l.28.36.06-.14,1.58.22a14.21,14.21,0,0,1,3.91-1c-.44.26-.09.42-.12.73-.49-.33-1.39.14-2.32.08.49,0,.38.18.26.23l1.66-.3c0,.25.35.19.78.3-.33-.51,1.24-.34,1.91-.49,0,.17-.12.34-.94.3.91.37,1.17-.59,2.06-.27-.2,0-.31,0-.38.06.47-.15,1.61,0,1.34.12h-.2c1.34.06,4.07,0,4.26-.42a1.75,1.75,0,0,1-.25.6l2.38-1.43c-.21.36.6,1.23-.51,1.44a3.53,3.53,0,0,0,1.38,0c-.22-.05-.54-.52-.24-.56a7.55,7.55,0,0,0,1.56.57c-.32-.08,0-.65.55-.64-.08.09,0,.57-.14.63l1.28-.56c-.32.1-.06.47.22.63-.13-.11,1.11,0,1.45,0l-.54-.13c1.44.08,1.42-.79,2.86-.77-.18.12-.43.72.3.79A6.27,6.27,0,0,1,41.2,1l.24.17,1-.19a20.32,20.32,0,0,1-3.24,1.7c.54.13.15.19,1,.18.29.15-.44.23-.68.24l1.89.1c-.09-.33,1.44-.33,1.37-.61l-2,.34c-.08-.33,1.18-.95,2.52-.89.34.13-.26.6-.23.71a3.39,3.39,0,0,1,1.39-.14l-.57.18c.75.13,1.22-.45,2.11-.12.31,0,.92.43,1,.23A1.58,1.58,0,0,1,46.6,1a16.7,16.7,0,0,1,2,.56c.5.3-.77.71-.33,1,0-.09.29-.2.41-.24.32.08-.13.29.57.24.12-.34,1.43,0,.33-.28a10.38,10.38,0,0,1,1.54,0c-.26-.22.73-.75,1.41-.85,0,.09.12.2.19.26,1.41,0,2.17.18,3.48.18.13.09.76.19.49.33A2.05,2.05,0,0,1,57.43,2c.78.29-.91,0-.31.4.05-.2,1.05-.27,1.63-.4-.18-.3-1.34-.06-1.91.07,0-.43,1-.87,2.37-1.06,1.1-.11.48.27.67.21,2,.07,1.74-.74,3.45-.43.67.27,0,.53.18.73a11.4,11.4,0,0,1-2-.16l.74.12a2.83,2.83,0,0,1-1.2.08c.57.24,3.47,0,5,.27.28-.09.76-.18.53-.29l-.5,0c-.46-.22,1-.3.31-.4A6.37,6.37,0,0,1,68.84.94l.18.3a1.29,1.29,0,0,0-.88-.08c.39-.14,1.45.41,1.88,0L69.36,1A6.87,6.87,0,0,1,71.7.57c-.38-.3-.19,0-.79-.32.52.45-2.14,0-1.31.45C69,.29,68.54.52,67.74.17c0,.11.28.2-.42.15,0,0-.11.06-.15.09h0s0,0,0,0a.77.77,0,0,1,.36.15,10.46,10.46,0,0,1-1.84.34c-.42,0,.17-.11-.06-.22l-.56.18C65,.65,64,.5,64.94.37h-.88A4.41,4.41,0,0,0,62.38.27c-.42,0-1.06.25-.69.08L60.3.49V.43C58.92.4,57.47.8,55.9.4a8,8,0,0,1-1.71.06L54,.26c-.59.07-1.78-.19-2,0-.64-.52-2.87-.11-3.91-.2l0,.25a16.38,16.38,0,0,0-2.3.16l.06.22A23.76,23.76,0,0,1,42.63.57c.09-.09.39-.07.61,0-1.45-.5-3.06.37-4.37,0a1.44,1.44,0,0,1-.8,0h0L37.57.42A2.34,2.34,0,0,0,38,.54a6.93,6.93,0,0,0-1,.09L36.78.39h-.09c-.37-.09-.29.12-.1.3a2.42,2.42,0,0,0-.49.14c-.3-.39-1,.13-1.4-.28-.25.2-1.89.15-2.09.58,0-.06-.12-.09.08-.09a2.89,2.89,0,0,0-1.21,0L31.3.76l-.91.41c-.56-.19-.79-.3-.24-.53-1.33.36-1.08.14-2.21.49L28,.94c-.41,0-1.05.27-1.3.11C25.8.67,22.22,1,19.9.64c.45.59-1.08-.26-1.18.19C18.59.7,18.27.62,18.64.5,17.46.63,16.86.28,16,.66c-.13-.14.25-.2.13-.28s-.37.12-.5,0S15.85.3,16,.24c-1.22,0-1.34.45-1.43.85a1.4,1.4,0,0,0-1.36.1c-.21-.13-.57-.27.18-.32C13,.85,10.84.68,10.8,1a1.5,1.5,0,0,0-.7,0c-.95,0-1,0-2,0l.26.05c-.35.39-.8.06-1.6.24V1.24a2.68,2.68,0,0,0-1.31.26A8.08,8.08,0,0,1,4.24,2l.21.16c.06.28-.32.38-.79.6a2.86,2.86,0,0,0-1.32,1l.36-.19a2.37,2.37,0,0,1-.92.69,3,3,0,0,0-1,.79c-.1.11,0-.23.09-.42-.51.69-.44.8-.32.84s.29.07.12.64c-.22.17-.34-.42-.58.4a3.15,3.15,0,0,0,0,1.54,4.58,4.58,0,0,1,0,1.8c.13-.21.26-.43.35.06.06.78-.52,2,0,2.81,0,.11,0,.15-.08.16a4.69,4.69,0,0,0,1.08,2.25c-.27.45.35,1.32,1.06,1.91s1.46,1,1.25,1.28a8,8,0,0,0,1.82.85l-.08,0a3.23,3.23,0,0,0,1.39.27,2.15,2.15,0,0,0,.79-.17c.28.07.07.13.05.17a6.2,6.2,0,0,0,3.23-.25l.14.25c.38-.15,2.39.39,4,.1,0,0-.05.07-.18.11,1.83-.29,4.37.69,5-.22l1.2-.22c-1.56-.07.23-.39-.41-.54.62,0,1.59.27.83.32L21.44,19c-.28.47,1.93.17,1.89.49,3.06,0,6.05.24,8.92.26l-.33-.37,1,0c.26.09.35.29-.36.27.37.21,1.19-.17,1.21-.25,1.4.15-.54.43-.11.44l.58,0-.13,0a2.6,2.6,0,0,1,1.37-.29c.54.07.28.22.49.24,0,0,.07,0,.33,0l1.26,0-.5-.29c.56-.14,1.18,0,.6-.31.85.5,4.7.18,5.23.33a8.74,8.74,0,0,1,2.51-.18c-.24-.06-.38-.38.45-.34-.31.67,1.51.29,2.18.77-.6-.32,2.34-.08,1.41-.53.69.05,0,.25.56.41,1.64-.26,3.61.17,5.64.08,0-.09-.31-.22.13-.36l1.07.44c.4,0,.37-.5,1.1-.2-.11-.07-.26-.18,0-.21,4,.43,8.11-.35,12.14.45-.54-.17-.18-.19.24-.19-.27,0,0-.22,0-.34l1.69.33c.31-.33,1.81,0,2-.34l-.54.06c.71-.37-1-.83-.89-1.31-.8.43-2.1-.63-3.4,0-.29-.1.24-.15.09-.26a2.19,2.19,0,0,1-1.47.15l.08-.05c-2.08.05-3-.15-5.31-.29l.17.24a2.91,2.91,0,0,1-.84-.16c-.58.36,1.41,0,.88.41-.66-.48-3.54,0-4-.55-.77,0,.23.27-.55.27l-.2-.15-.2.19c-.5,0-.76-.22-.78-.34a4.12,4.12,0,0,0,.48-.05,11.57,11.57,0,0,0-2.08,0l.75.09c-2.11.14-4.69-.06-6.73.24l.16.11c-1.56.21-1.25-.12-3,0l.06,0a4,4,0,0,1-1.26.16c.43-.14-.81-.26-.25-.4-1.68.22-.83.17-2,.59L43,18a2.32,2.32,0,0,1-1.27.3c.7-.15-.54-.28.24-.49-1.79-.4-2.66.41-3.48-.18-.82.51,1.55.28,1.09.39.38.17-.68.39-1.24.33s-1-.65-2.41-.64c.14,0,.15,0,.29,0-.54-.13-1.05.18-1.71,0-.37.31-.86,0-1,.38l1.32-.1a6.24,6.24,0,0,1-2.68.35,2.71,2.71,0,0,1,.71-.25c-.36-.11-.69.08-1.06,0,.1-.4,1.6-.09,2.4-.39-.38-.16-1.51.29-1.11-.14-.58.55-1.42-.07-2.39.35l.06-.24a2.64,2.64,0,0,1-.76.14l.52-.3c-.79.26-1.52-.23-2.28-.09,1.58,0,.35.29,1,.46-1.95.32-1.12-.62-3.31-.51.3,0,1.11.14.65.25a4.55,4.55,0,0,1-1.22-.26c-1.45.05.22.24-.4.39-.49-.29-.71.12-1.34.21V17.6c-1.65-.16-.44.5-1.92.31l.63-.33-.78.09.16-.28a4.51,4.51,0,0,1-1.93.08c.19.17-.11.43-.84.44-.5-.14.28-.23-.76-.19a.82.82,0,0,1,.94-.12c.05-.08.23-.15.28-.23a5.94,5.94,0,0,0-1.72,0,2,2,0,0,1,.4.06l-1.5.33c-.24-.09-.05-.16.14-.23a9.77,9.77,0,0,1-1,.16c.12-.2.09-.4.72-.49l-1.43.21c-.09-.08-.73-.23-.55-.3-.79-.12-1.95.38-3,.23a1.09,1.09,0,0,1-.39.1,9.63,9.63,0,0,0-3,0A3.78,3.78,0,0,1,7.55,17c-.73,0,.69.53-.57.5-.91-.09-.25-.36-.52-.53a1.87,1.87,0,0,1-1.86-.69C4.85,16.41,5,16.57,5.23,16.67ZM2.39,7.75c0,.2.17.54,0,.7C2.14,8.22,2.28,8.06,2.39,7.75Zm13-5.57a1,1,0,0,1-.7-.05A1.91,1.91,0,0,1,15.4,2.18ZM63.37.5h0C62.86.41,63,.45,63.37.5Zm1,.1c.1,0,.1-.07,0-.1a1,1,0,0,1-.56.05C64,.61,64.09.66,64.39.6Zm-28.31,19-.19-.07C36.33,19.5,36.21,19.57,36.08,19.64Z"/><path class="cls-1" d="M13.45,2.51a.23.23,0,0,1-.1-.13C13.27,2.42,13.27,2.46,13.45,2.51Z"/><path class="cls-1" d="M11.48,17.29h0l0-.05Z"/><path class="cls-1" d="M48.64,2.65a1.07,1.07,0,0,1-.4-.13C48.22,2.58,48.32,2.63,48.64,2.65Z"/><path class="cls-1" d="M69.78.19l-.65.06a1.85,1.85,0,0,1,.58.08S69.57.2,69.78.19Z"/><path class="cls-1" d="M75.43,1.72a2.71,2.71,0,0,1,.29,0V1.61C75.3,1.55,75,1.66,75.43,1.72Z"/><path class="cls-1" d="M70.38,1c.05.21.46.14.92.1h-.08C71.35.81,70.87.9,70.38,1Z"/><path class="cls-1" d="M71.4,1.08a2.94,2.94,0,0,1,.42,0C71.88,1,71.65,1.05,71.4,1.08Z"/><path class="cls-1" d="M65.68.47c.22.05.14-.26.26-.18C66.18,0,64.5.6,65.68.47Z"/><polygon class="cls-1" points="70.75 1.66 70.59 1.41 70.33 1.61 70.75 1.66"/><path class="cls-1" d="M67.15,1.48l.73.07s.08-.07.19-.09C67.62,1.45,67.13,1.4,67.15,1.48Z"/><path class="cls-1" d="M68.07,1.46a2,2,0,0,0,.59,0A4.48,4.48,0,0,0,68.07,1.46Z"/><polygon class="cls-1" points="69.75 1.74 69.54 1.69 69.02 1.67 69.75 1.74"/><path class="cls-1" d="M59.31,1.43l-.79.07c-.09.09.13.14.43.11S59.43,1.51,59.31,1.43Z"/><path class="cls-1" d="M61.72,2.12a.8.8,0,0,1-.35-.19l0,.31Z"/><path class="cls-1" d="M59.4,2.19c-.08.08-1.16.25-.15.23C59.33,2.33,60.13,2.26,59.4,2.19Z"/><polygon class="cls-1" points="47.41 1.79 47.61 1.79 47.58 1.28 47.41 1.79"/><path class="cls-1" d="M36.84,3c.95.13.23-.31,1.08-.16.22-.12-.7-.12-.47-.23C36.88,2.75,36.58,2.68,36.84,3Z"/><path class="cls-1" d="M37.45,2.62l.29-.07Z"/><polygon class="cls-1" points="73.1 19.89 73.71 20 73.31 19.83 73.1 19.89"/><path class="cls-1" d="M74.26,19.52l.15.32.36-.29A1.08,1.08,0,0,1,74.26,19.52Z"/><path class="cls-1" d="M3.33,6.62l-.06-.06c-.1,0-.15.14-.23.34C3.13,6.8,3.24,6.71,3.33,6.62Z"/><polygon class="cls-1" points="3.04 13.63 3.01 13.53 2.81 13.82 3.04 13.63"/><path class="cls-1" d="M7,16.68c-.19-.07-.44-.05-.63-.14C6.75,16.64,6.93,17,7,16.68Z"/></g></g></svg>